ply
format ascii 1.0
element vertex 32
property float32 x
property float32 y
property float32 z
element face 30
property list uint8 int32 vertex_indices
end_header
1.000000 1.000000 -1.000000 
1.000000 0.999999 1.000000 
3.000000 0.999999 1.000000 
3.000000 0.999999 -1.000000 
0.999999 -1.000001 1.000000 
1.000000 -1.000000 -1.000000 
3.000000 -1.000001 -1.000000 
2.999999 -1.000001 1.000000 
-1.000000 1.000000 1.000000 
-1.000000 1.000000 3.000000 
1.000000 0.999999 3.000000 
-1.000000 -1.000000 1.000000 
-1.000000 -1.000000 3.000000 
0.999999 -1.000001 3.000000 
-1.000000 1.000000 -1.000000 
-3.000000 1.000001 -1.000000 
-3.000000 1.000000 1.000000 
-1.000000 -1.000000 -1.000000 
-3.000000 -0.999999 1.000000 
-3.000000 -0.999999 -1.000000 
-1.000000 1.000000 -3.000000 
-1.000000 -1.000000 -3.000000 
1.000000 1.000000 -3.000000 
1.000000 -1.000000 -3.000000 
-0.999999 3.000000 1.000000 
-0.999999 3.000000 -1.000000 
1.000000 3.000000 -1.000000 
1.000001 3.000000 1.000000 
-1.000001 -3.000000 -1.000000 
-1.000001 -3.000000 1.000000 
0.999999 -3.000000 1.000000 
0.999999 -3.000000 -1.000000 
4 0 1 2 3 
4 4 5 6 7 
4 1 4 7 2 
4 5 0 3 6 
4 3 2 7 6 
4 1 8 9 10 
4 8 11 12 9 
4 11 4 13 12 
4 4 1 10 13 
4 10 9 12 13 
4 8 14 15 16 
4 17 11 18 19 
4 11 8 16 18 
4 14 17 19 15 
4 19 18 16 15 
4 17 14 20 21 
4 14 0 22 20 
4 0 5 23 22 
4 5 17 21 23 
4 21 20 22 23 
4 14 8 24 25 
4 1 0 26 27 
4 8 1 27 24 
4 0 14 25 26 
4 25 24 27 26 
4 11 17 28 29 
4 5 4 30 31 
4 4 11 29 30 
4 17 5 31 28 
4 31 30 29 28 
