ply
format ascii 1.0
element vertex 24
property float32 x
property float32 y
property float32 z
element face 22
property list uint8 int32 vertex_indices
end_header
1.000000 1.000000 -1.000000 
1.000000 -1.000000 -1.000000 
-1.000000 -1.000000 -1.000000 
-1.000000 1.000000 -1.000000 
1.000000 0.999999 1.000000 
-1.000000 1.000000 1.000000 
-1.000000 -1.000000 1.000000 
0.999999 -1.000001 1.000000 
-1.000001 -3.000000 -1.000000 
-1.000001 -3.000000 1.000000 
0.999999 -3.000000 1.000000 
0.999999 -3.000000 -1.000000 
0.999999 -5.000000 -1.000000 
-1.000001 -5.000000 -1.000000 
-1.000002 -5.000000 1.000000 
0.999998 -5.000000 1.000000 
-3.000000 1.000001 -1.000000 
-3.000000 1.000000 1.000000 
-3.000000 -0.999999 1.000000 
-3.000000 -0.999999 -1.000000 
-5.000000 -0.999999 -1.000001 
-5.000000 1.000001 -1.000001 
-5.000000 1.000001 0.999999 
-5.000000 -0.999999 0.999999 
4 0 1 2 3 
4 4 5 6 7 
4 0 4 7 1 
4 4 0 3 5 
4 6 2 8 9 
4 1 7 10 11 
4 7 6 9 10 
4 2 1 11 8 
4 8 11 12 13 
4 10 9 14 15 
4 11 10 15 12 
4 9 8 13 14 
4 12 15 14 13 
4 5 3 16 17 
4 2 6 18 19 
4 6 5 17 18 
4 3 2 19 16 
4 16 19 20 21 
4 18 17 22 23 
4 19 18 23 20 
4 17 16 21 22 
4 20 23 22 21 
