ply
format ascii 1.0
element vertex 20
property float32 x
property float32 y
property float32 z
element face 18
property list uint8 int32 vertex_indices
end_header
1.000000 1.000000 -1.000000 
1.000000 -1.000000 -1.000000 
-1.000000 -1.000000 -1.000000 
-1.000000 1.000000 -1.000000 
0.999999 -1.000001 1.000000 
-1.000000 -1.000000 1.000000 
-1.000000 1.000000 1.000000 
1.000000 0.999999 1.000000 
2.999999 -1.000001 1.000000 
3.000000 0.999999 1.000000 
3.000000 -1.000001 -1.000000 
3.000000 0.999999 -1.000000 
1.000001 3.000000 1.000000 
-0.999999 3.000000 1.000000 
-0.999999 3.000000 -1.000000 
1.000000 3.000000 -1.000000 
-1.000000 -1.000000 3.000000 
-1.000000 1.000000 3.000000 
0.999999 -1.000001 3.000000 
1.000000 0.999999 3.000000 
4 0 1 2 3 
4 1 4 5 2 
4 2 5 6 3 
4 7 4 8 9 
4 4 1 10 8 
4 0 7 9 11 
4 1 0 11 10 
4 11 9 8 10 
4 6 7 12 13 
4 3 6 13 14 
4 7 0 15 12 
4 0 3 14 15 
4 12 15 14 13 
4 6 5 16 17 
4 5 4 18 16 
4 7 6 17 19 
4 4 7 19 18 
4 19 17 16 18 
