ply
format ascii 1.0
element vertex 32
property float32 x
property float32 y
property float32 z
element face 32
property list uint8 int32 vertex_indices
end_header
-3.000000 1.000000 1.000000 
-3.000000 0.999999 3.000000 
-1.000000 0.999999 3.000000 
-1.000000 1.000000 1.000000 
-3.000001 -1.000001 3.000000 
-3.000000 -1.000000 1.000000 
-1.000000 -1.000000 1.000000 
-1.000001 -1.000001 3.000000 
1.000000 0.999999 1.000000 
1.000000 -1.000001 1.000000 
0.999999 -1.000001 3.000000 
1.000000 0.999999 3.000000 
-1.000000 -1.000000 -1.000000 
-1.000000 1.000000 -1.000000 
-3.000000 -1.000000 -1.000000 
-3.000000 1.000000 -1.000000 
-3.000000 1.000000 -3.000000 
-3.000000 -1.000000 -3.000000 
-1.000000 1.000000 -3.000000 
-1.000000 -1.000000 -3.000000 
1.000000 1.000000 -3.000000 
1.000000 -1.000000 -3.000000 
1.000000 -1.000000 -1.000000 
1.000000 1.000000 -1.000000 
3.000000 1.000000 -1.000000 
3.000000 1.000000 -3.000000 
3.000000 -1.000000 -3.000000 
3.000000 -1.000000 -1.000000 
3.000000 1.000000 1.000000 
3.000000 -1.000000 1.000000 
3.000000 -1.000000 3.000000 
3.000000 1.000000 3.000000 
4 0 1 2 3 
4 4 5 6 7 
4 6 3 8 9 
4 2 7 10 11 
4 7 6 9 10 
4 3 2 11 8 
4 3 6 12 13 
4 6 5 14 12 
4 0 3 13 15 
4 5 0 15 14 
4 14 15 16 17 
4 15 13 18 16 
4 12 14 17 19 
4 17 16 18 19 
4 19 18 20 21 
4 12 19 21 22 
4 18 13 23 20 
4 13 12 22 23 
4 20 23 24 25 
4 22 21 26 27 
4 21 20 25 26 
4 24 27 26 25 
4 24 23 8 28 
4 27 24 28 29 
4 22 27 29 9 
4 23 22 9 8 
4 9 29 30 10 
4 29 28 31 30 
4 28 8 11 31 
4 1 4 7 2 
4 0 5 4 1 
4 10 30 31 11 
