ply
format ascii 1.0
element vertex 28
property float32 x
property float32 y
property float32 z
element face 26
property list uint8 int32 vertex_indices
end_header
2.000000 1.000000 -1.000000 
2.000000 0.999999 1.000000 
1.999999 -1.000001 1.000000 
2.000000 -1.000000 -1.000000 
-0.000000 -1.000000 1.000000 
-0.000000 -1.000000 -1.000000 
0.000000 1.000000 -1.000000 
0.000000 1.000000 1.000000 
-0.000000 -1.000000 3.000000 
0.000000 1.000000 3.000000 
1.999999 -1.000001 3.000000 
2.000000 0.999999 3.000000 
-2.000000 1.000000 1.000000 
-2.000000 -0.999999 1.000000 
-2.000000 -0.999999 -1.000000 
-2.000000 1.000001 -1.000000 
-0.000001 -3.000000 -1.000000 
-2.000000 -2.999999 -1.000000 
-2.000001 -2.999999 1.000000 
-0.000001 -3.000000 1.000000 
-2.000000 3.000000 1.000000 
-1.999999 3.000001 -1.000000 
0.000001 3.000000 -1.000000 
0.000001 3.000000 1.000000 
0.000000 1.000000 -3.000000 
-0.000000 -1.000000 -3.000000 
2.000000 -1.000000 -3.000000 
2.000000 1.000000 -3.000000 
4 0 1 2 3 
4 3 2 4 5 
4 1 0 6 7 
4 7 4 8 9 
4 4 2 10 8 
4 1 7 9 11 
4 2 1 11 10 
4 11 9 8 10 
4 4 7 12 13 
4 6 5 14 15 
4 14 13 12 15 
4 14 5 16 17 
4 13 14 17 18 
4 4 13 18 19 
4 5 4 19 16 
4 16 19 18 17 
4 15 12 20 21 
4 6 15 21 22 
4 12 7 23 20 
4 7 6 22 23 
4 23 22 21 20 
4 5 6 24 25 
4 3 5 25 26 
4 6 0 27 24 
4 0 3 26 27 
4 27 26 25 24 
