ply
format ascii 1.0
element vertex 66
property float32 x
property float32 y
property float32 z
element face 64
property list uint8 int32 vertex_indices
end_header
0.000000 0.000000 -1.000000 
0.000000 -2.000000 -1.000000 
-2.000000 -2.000000 -1.000000 
-2.000000 0.000000 -1.000000 
-1.999999 2.000000 -1.000000 
0.000000 2.000000 -1.000000 
2.000000 2.000000 -1.000000 
2.000000 -0.000001 -1.000000 
2.000000 -2.000000 -1.000001 
-0.000001 -2.000000 1.000000 
2.000000 -2.000001 0.999999 
1.640000 -1.640001 -0.000001 
0.359999 -1.640001 0.000000 
2.000000 -0.000001 1.000000 
1.640000 -0.360001 0.000000 
0.000000 -0.000001 1.000000 
0.360000 -0.360001 0.000000 
2.000001 1.999999 1.000000 
0.000001 2.000000 1.000000 
0.360001 1.639999 2.000000 
1.640001 1.639999 2.000000 
1.640001 0.359999 2.000000 
0.360001 0.359999 2.000000 
-2.000000 2.000000 1.000000 
-1.640000 1.640000 0.000000 
-0.359999 1.640000 0.000000 
-0.359999 0.360000 0.000000 
-2.000000 0.000000 1.000000 
-1.640000 0.360000 0.000000 
-1.640000 -0.360000 2.000000 
-0.360000 -0.360000 2.000000 
-2.000000 -2.000000 1.000000 
-1.640000 -1.640000 2.000000 
-0.360000 -1.640000 2.000000 
-0.000001 -3.000000 1.000000 
2.000000 -3.000001 0.999999 
-2.000000 -3.000000 1.000000 
2.000000 -3.000000 -1.000001 
-0.000000 -3.000000 -1.000000 
-2.000000 -3.000000 -1.000000 
3.000000 -2.000000 -1.000001 
3.000000 -3.000000 -1.000001 
3.000000 -3.000001 0.999999 
3.000000 -2.000001 0.999999 
3.000000 -0.000001 1.000000 
3.000000 -0.000001 -1.000000 
3.000000 2.000000 -1.000000 
3.000001 1.999999 1.000000 
3.000000 3.000000 -1.000000 
3.000001 2.999999 1.000000 
2.000001 2.999999 1.000000 
2.000000 3.000000 -1.000000 
0.000001 3.000000 1.000000 
0.000000 3.000000 -1.000000 
-1.999999 3.000000 -1.000000 
-2.000000 3.000000 1.000000 
-2.999999 3.000000 -1.000000 
-3.000000 3.000000 1.000000 
-3.000000 2.000000 1.000000 
-2.999999 2.000000 -1.000000 
-3.000000 -3.000000 1.000000 
-3.000000 -3.000000 -1.000000 
-3.000000 -2.000000 -1.000000 
-3.000000 -2.000000 1.000000 
-3.000000 0.000000 1.000000 
-3.000000 0.000000 -1.000000 
4 0 1 2 3 
4 0 3 4 5 
4 0 5 6 7 
4 0 7 8 1 
4 9 10 11 12 
4 10 13 14 11 
4 13 15 16 14 
4 15 9 12 16 
4 14 16 12 11 
4 17 18 19 20 
4 13 17 20 21 
4 15 13 21 22 
4 18 15 22 19 
4 19 22 21 20 
4 18 23 24 25 
4 15 18 25 26 
4 23 27 28 24 
4 27 15 26 28 
4 28 26 25 24 
4 15 27 29 30 
4 27 31 32 29 
4 31 9 33 32 
4 9 15 30 33 
4 30 29 32 33 
4 10 9 34 35 
4 9 31 36 34 
4 1 8 37 38 
4 2 1 38 39 
4 34 38 37 35 
4 38 34 36 39 
4 37 8 40 41 
4 35 37 41 42 
4 10 35 42 43 
4 13 10 43 44 
4 8 7 45 40 
4 7 6 46 45 
4 17 13 44 47 
4 40 43 42 41 
4 44 43 40 45 
4 44 45 46 47 
4 47 46 48 49 
4 17 47 49 50 
4 46 6 51 48 
4 18 17 50 52 
4 6 5 53 51 
4 5 4 54 53 
4 23 18 52 55 
4 51 50 49 48 
4 53 52 50 51 
4 54 55 52 53 
4 55 54 56 57 
4 23 55 57 58 
4 54 4 59 56 
4 39 36 60 61 
4 2 39 61 62 
4 36 31 63 60 
4 27 23 58 64 
4 31 27 64 63 
4 4 3 65 59 
4 3 2 62 65 
4 59 58 57 56 
4 63 62 61 60 
4 65 64 58 59 
4 62 63 64 65 
