ply
format ascii 1.0
element vertex 25
property float32 x
property float32 y
property float32 z
element face 25
property list uint8 int32 vertex_indices
end_header
3.587785 0.000000 0.809017 
2.412215 0.000000 0.809017 
0.745415 -2.294152 0.809017 
1.108687 -3.412186 0.809017 
2.048944 0.000000 -0.309017 
0.633158 -1.948661 -0.309017 
3.000000 0.000000 -1.000000 
0.927051 -2.853169 -1.000000 
3.951056 0.000000 -0.309017 
1.220944 -3.757678 -0.309017 
-2.902579 -2.108847 0.809017 
-3.196472 -2.322373 -0.309017 
-2.427051 -1.763356 -1.000000 
-1.657630 -1.204339 -0.309017 
-1.951523 -1.417864 0.809017 
-1.951523 1.417864 0.809017 
-2.902579 2.108847 0.809017 
-1.657630 1.204339 -0.309017 
-2.427051 1.763356 -1.000000 
-3.196472 2.322373 -0.309017 
1.108687 3.412187 0.809017 
1.220944 3.757678 -0.309017 
0.927051 2.853170 -1.000000 
0.633158 1.948661 -0.309017 
0.745415 2.294153 0.809017 
4 0 1 2 3 
4 4 5 2 1 
4 4 6 7 5 
4 8 9 7 6 
4 0 3 9 8 
4 3 10 11 9 
4 9 11 12 7 
4 5 7 12 13 
4 5 13 14 2 
4 3 2 14 10 
4 10 14 15 16 
4 13 17 15 14 
4 13 12 18 17 
4 11 19 18 12 
4 10 16 19 11 
4 16 20 21 19 
4 19 21 22 18 
4 17 18 22 23 
4 17 23 24 15 
4 16 15 24 20 
4 1 0 20 24 
4 23 4 1 24 
4 23 22 6 4 
4 21 8 6 22 
4 20 0 8 21 
