ply
format ascii 1.0
element vertex 50
property float32 x
property float32 y
property float32 z
element face 50
property list uint8 int32 vertex_indices
end_header
-0.154517 0.000000 0.475500 
0.154517 0.000000 0.475500 
0.118917 0.158517 0.366000 
-0.118917 0.158517 0.366000 
0.061333 0.097967 0.188833 
-0.061333 0.097967 0.188833 
0.061333 -0.097967 0.188833 
-0.061333 -0.097967 0.188833 
0.118917 -0.158517 0.366000 
-0.118917 -0.158517 0.366000 
-0.404500 0.000000 0.293833 
-0.311333 0.158517 0.226167 
-0.160583 0.097967 0.116667 
-0.160583 -0.097967 0.116667 
-0.311333 -0.158517 0.226167 
-0.198500 0.097967 0.000000 
-0.384833 0.158517 0.000000 
-0.500000 0.000000 0.000000 
-0.384833 -0.158517 0.000000 
-0.198500 -0.097967 0.000000 
-0.160583 -0.097967 -0.116667 
-0.311333 -0.158517 -0.226167 
-0.404500 0.000000 -0.293833 
-0.311333 0.158517 -0.226167 
-0.160583 0.097967 -0.116667 
-0.061333 0.097967 -0.188833 
-0.061333 -0.097967 -0.188833 
0.061333 0.097967 -0.188833 
0.061333 -0.097967 -0.188833 
0.160583 -0.097967 -0.116667 
0.160583 0.097967 -0.116667 
0.198500 0.097967 0.000000 
0.198500 -0.097967 0.000000 
0.160583 -0.097967 0.116667 
0.160583 0.097967 0.116667 
-0.118917 0.158517 -0.366000 
0.118917 0.158517 -0.366000 
0.311333 0.158517 -0.226167 
0.384833 0.158517 0.000000 
0.311333 0.158517 0.226167 
-0.154517 0.000000 -0.475500 
0.154517 0.000000 -0.475500 
0.404500 0.000000 -0.293833 
0.500000 0.000000 0.000000 
0.404500 0.000000 0.293833 
0.311333 -0.158517 0.226167 
0.384833 -0.158517 0.000000 
0.311333 -0.158517 -0.226167 
0.118917 -0.158517 -0.366000 
-0.118917 -0.158517 -0.366000 
4 0 1 2 3 
4 3 2 4 5 
4 5 4 6 7 
4 8 9 7 6 
4 1 0 9 8 
4 10 0 3 11 
4 11 3 5 12 
4 7 13 12 5 
4 13 7 9 14 
4 0 10 14 9 
4 12 15 16 11 
4 17 10 11 16 
4 18 14 10 17 
4 14 18 19 13 
4 15 12 13 19 
4 20 19 18 21 
4 17 22 21 18 
4 16 23 22 17 
4 23 16 15 24 
4 19 20 24 15 
4 25 24 20 26 
4 27 25 26 28 
4 28 29 30 27 
4 31 30 29 32 
4 32 33 34 31 
4 4 34 33 6 
4 24 25 35 23 
4 36 35 25 27 
4 37 36 27 30 
4 30 31 38 37 
4 39 38 31 34 
4 34 4 2 39 
4 40 22 23 35 
4 41 40 35 36 
4 36 37 42 41 
4 43 42 37 38 
4 38 39 44 43 
4 1 44 39 2 
4 8 45 44 1 
4 45 8 6 33 
4 33 32 46 45 
4 43 44 45 46 
4 46 47 42 43 
4 47 46 32 29 
4 29 28 48 47 
4 41 42 47 48 
4 49 48 28 26 
4 21 49 26 20 
4 49 21 22 40 
4 40 41 48 49 
