ply
format ascii 1.0
element vertex 150
property float32 x
property float32 y
property float32 z
element face 150
property list uint8 int32 vertex_indices
end_header
4.587784 0.809018 0.000000 
4.487530 0.809018 -0.953854 
3.337649 0.809016 -0.709439 
3.412214 0.809016 0.000000 
2.982317 -0.309018 -0.633911 
3.048944 -0.309018 0.000000 
3.912592 -1.000000 -0.831647 
4.000001 -1.000000 0.000000 
4.842865 -0.309016 -1.029383 
4.951057 -0.309016 0.000000 
4.523015 -0.309016 -2.013777 
4.191149 0.809018 -1.866020 
3.654183 -1.000000 -1.626947 
2.785349 -0.309018 -1.240117 
3.117212 0.809016 -1.387872 
3.711595 0.809018 -2.696632 
2.760539 0.809016 -2.005649 
2.466648 -0.309019 -1.792125 
3.236069 -1.000000 -2.351142 
4.005489 -0.309016 -2.910159 
3.312904 -0.309016 -3.679353 
3.069827 0.809018 -3.409388 
2.676524 -1.000000 -2.972581 
2.040142 -0.309019 -2.265807 
2.283217 0.809016 -2.535769 
2.293892 0.809018 -3.973138 
1.706107 0.809016 -2.955064 
1.524472 -0.309019 -2.640463 
2.000001 -1.000000 -3.464103 
2.475528 -0.309016 -4.287742 
1.529961 -0.309016 -4.708735 
1.417703 0.809018 -4.363243 
1.236068 -1.000000 -3.804228 
0.942176 -0.309019 -2.899719 
1.054432 0.809016 -3.245208 
0.479554 0.809018 -4.562653 
0.356674 0.809016 -3.393522 
0.318701 -0.309019 -3.032242 
0.418114 -1.000000 -3.978090 
0.517526 -0.309016 -4.923935 
-0.517527 -0.309016 -4.923935 
-0.479554 0.809018 -4.562653 
-0.418114 -1.000000 -3.978090 
-0.318702 -0.309019 -3.032242 
-0.356673 0.809016 -3.393522 
-1.417704 0.809018 -4.363243 
-1.054432 0.809016 -3.245209 
-0.942176 -0.309019 -2.899719 
-1.236069 -1.000000 -3.804228 
-1.529961 -0.309016 -4.708735 
-2.475529 -0.309016 -4.287742 
-2.293893 0.809018 -3.973138 
-2.000001 -1.000000 -3.464104 
-1.524472 -0.309019 -2.640463 
-1.706107 0.809016 -2.955064 
-3.069828 0.809018 -3.409389 
-2.283217 0.809016 -2.535769 
-2.040142 -0.309019 -2.265807 
-2.676524 -1.000000 -2.972581 
-3.312905 -0.309016 -3.679353 
-4.005490 -0.309016 -2.910159 
-3.711596 0.809018 -2.696632 
-3.236070 -1.000000 -2.351142 
-2.466648 -0.309019 -1.792125 
-2.760540 0.809016 -2.005649 
-4.191151 0.809018 -1.866020 
-3.117213 0.809016 -1.387873 
-2.785350 -0.309018 -1.240117 
-3.654185 -1.000000 -1.626948 
-4.523017 -0.309016 -2.013777 
-4.842866 -0.309016 -1.029383 
-4.487532 0.809018 -0.953854 
-3.912593 -1.000000 -0.831647 
-2.982318 -0.309018 -0.633911 
-3.337650 0.809016 -0.709439 
-4.587786 0.809018 0.000000 
-3.412215 0.809016 0.000000 
-3.048945 -0.309018 0.000000 
-4.000003 -1.000000 0.000000 
-4.951058 -0.309016 0.000000 
-4.842866 -0.309016 1.029383 
-4.487532 0.809018 0.953855 
-3.912593 -1.000000 0.831648 
-2.982318 -0.309018 0.633911 
-3.337650 0.809016 0.709440 
-4.191151 0.809018 1.866021 
-3.117214 0.809016 1.387873 
-2.785350 -0.309018 1.240118 
-3.654185 -1.000000 1.626948 
-4.523017 -0.309016 2.013777 
-4.005490 -0.309016 2.910160 
-3.711596 0.809018 2.696633 
-3.236070 -1.000000 2.351143 
-2.466648 -0.309018 1.792125 
-2.760540 0.809016 2.005650 
-3.069828 0.809018 3.409390 
-2.283218 0.809016 2.535770 
-2.040142 -0.309018 2.265808 
-2.676524 -1.000000 2.972582 
-3.312905 -0.309016 3.679354 
-2.475529 -0.309016 4.287743 
-2.293893 0.809018 3.973140 
-2.000001 -1.000000 3.464105 
-1.524472 -0.309018 2.640464 
-1.706108 0.809016 2.955065 
-1.417703 0.809018 4.363244 
-1.054432 0.809016 3.245210 
-0.942176 -0.309018 2.899719 
-1.236069 -1.000000 3.804229 
-1.529961 -0.309016 4.708737 
-0.517526 -0.309016 4.923937 
-0.479554 0.809018 4.562654 
-0.418114 -1.000000 3.978091 
-0.318702 -0.309018 3.032243 
-0.356673 0.809016 3.393523 
0.479555 0.809018 4.562654 
0.356674 0.809016 3.393523 
0.318702 -0.309018 3.032243 
0.418115 -1.000000 3.978091 
0.517527 -0.309016 4.923937 
1.529962 -0.309016 4.708737 
1.417705 0.809018 4.363244 
1.236070 -1.000000 3.804229 
0.942176 -0.309018 2.899719 
1.054433 0.809016 3.245210 
2.293894 0.809018 3.973140 
1.706108 0.809016 2.955065 
1.524473 -0.309018 2.640464 
2.000002 -1.000000 3.464105 
2.475530 -0.309016 4.287743 
3.312906 -0.309016 3.679354 
3.069829 0.809018 3.409390 
2.676525 -1.000000 2.972582 
2.040143 -0.309018 2.265808 
2.283218 0.809016 2.535770 
3.711598 0.809018 2.696633 
2.760541 0.809016 2.005650 
2.466649 -0.309018 1.792125 
3.236071 -1.000000 2.351143 
4.005492 -0.309016 2.910159 
4.523018 -0.309016 2.013777 
4.191152 0.809018 1.866021 
3.654186 -1.000000 1.626948 
2.785350 -0.309018 1.240118 
3.117215 0.809016 1.387873 
4.487533 0.809018 0.953854 
3.337651 0.809016 0.709439 
2.982318 -0.309018 0.633911 
3.912594 -1.000000 0.831647 
4.842867 -0.309016 1.029383 
4 0 1 2 3 
4 3 2 4 5 
4 5 4 6 7 
4 7 6 8 9 
4 1 0 9 8 
4 8 10 11 1 
4 6 12 10 8 
4 4 13 12 6 
4 2 14 13 4 
4 1 11 14 2 
4 11 15 16 14 
4 14 16 17 13 
4 13 17 18 12 
4 12 18 19 10 
4 10 19 15 11 
4 19 20 21 15 
4 18 22 20 19 
4 17 23 22 18 
4 16 24 23 17 
4 15 21 24 16 
4 21 25 26 24 
4 24 26 27 23 
4 23 27 28 22 
4 22 28 29 20 
4 20 29 25 21 
4 29 30 31 25 
4 28 32 30 29 
4 27 33 32 28 
4 26 34 33 27 
4 25 31 34 26 
4 31 35 36 34 
4 34 36 37 33 
4 33 37 38 32 
4 32 38 39 30 
4 30 39 35 31 
4 39 40 41 35 
4 38 42 40 39 
4 37 43 42 38 
4 36 44 43 37 
4 35 41 44 36 
4 41 45 46 44 
4 44 46 47 43 
4 43 47 48 42 
4 42 48 49 40 
4 40 49 45 41 
4 49 50 51 45 
4 48 52 50 49 
4 47 53 52 48 
4 46 54 53 47 
4 45 51 54 46 
4 51 55 56 54 
4 54 56 57 53 
4 53 57 58 52 
4 52 58 59 50 
4 50 59 55 51 
4 59 60 61 55 
4 58 62 60 59 
4 57 63 62 58 
4 56 64 63 57 
4 55 61 64 56 
4 61 65 66 64 
4 64 66 67 63 
4 63 67 68 62 
4 62 68 69 60 
4 60 69 65 61 
4 69 70 71 65 
4 68 72 70 69 
4 67 73 72 68 
4 66 74 73 67 
4 65 71 74 66 
4 71 75 76 74 
4 74 76 77 73 
4 73 77 78 72 
4 72 78 79 70 
4 70 79 75 71 
4 79 80 81 75 
4 78 82 80 79 
4 77 83 82 78 
4 76 84 83 77 
4 75 81 84 76 
4 81 85 86 84 
4 84 86 87 83 
4 83 87 88 82 
4 82 88 89 80 
4 80 89 85 81 
4 89 90 91 85 
4 88 92 90 89 
4 87 93 92 88 
4 86 94 93 87 
4 85 91 94 86 
4 91 95 96 94 
4 94 96 97 93 
4 93 97 98 92 
4 92 98 99 90 
4 90 99 95 91 
4 99 100 101 95 
4 98 102 100 99 
4 97 103 102 98 
4 96 104 103 97 
4 95 101 104 96 
4 101 105 106 104 
4 104 106 107 103 
4 103 107 108 102 
4 102 108 109 100 
4 100 109 105 101 
4 109 110 111 105 
4 108 112 110 109 
4 107 113 112 108 
4 106 114 113 107 
4 105 111 114 106 
4 111 115 116 114 
4 114 116 117 113 
4 113 117 118 112 
4 112 118 119 110 
4 110 119 115 111 
4 119 120 121 115 
4 118 122 120 119 
4 117 123 122 118 
4 116 124 123 117 
4 115 121 124 116 
4 121 125 126 124 
4 124 126 127 123 
4 123 127 128 122 
4 122 128 129 120 
4 120 129 125 121 
4 129 130 131 125 
4 128 132 130 129 
4 127 133 132 128 
4 126 134 133 127 
4 125 131 134 126 
4 131 135 136 134 
4 134 136 137 133 
4 133 137 138 132 
4 132 138 139 130 
4 130 139 135 131 
4 139 140 141 135 
4 138 142 140 139 
4 137 143 142 138 
4 136 144 143 137 
4 135 141 144 136 
4 141 145 146 144 
4 144 146 147 143 
4 143 147 148 142 
4 142 148 149 140 
4 140 149 145 141 
4 0 145 149 9 
4 148 7 9 149 
4 147 5 7 148 
4 146 3 5 147 
4 145 0 3 146 
